<mxfile host="app.diagrams.net" modified="2023-10-03T20:51:03.521Z" agent="Mozilla/5.0 (Windows NT 10.0; Win64; x64) AppleWebKit/537.36 (KHTML, like Gecko) Chrome/117.0.0.0 Safari/537.36" etag="P0hEQsbt_DnRKJjDY5rc" version="21.8.2" type="device">
  <diagram name="Сторінка-1" id="_Ro8ebr_PKxynZWaetWl">
    <mxGraphModel dx="1434" dy="750" grid="1" gridSize="10" guides="1" tooltips="1" connect="1" arrows="1" fold="1" page="1" pageScale="1" pageWidth="850" pageHeight="1100" math="0" shadow="0">
      <root>
        <mxCell id="0" />
        <mxCell id="1" parent="0" />
        <mxCell id="3lOZ6aOzdxaL4Qyu1qb0-2" value="Patients" style="whiteSpace=wrap;html=1;" parent="1" vertex="1">
          <mxGeometry x="400" y="120" width="80" height="40" as="geometry" />
        </mxCell>
        <mxCell id="3lOZ6aOzdxaL4Qyu1qb0-3" value="Vaccines" style="whiteSpace=wrap;html=1;" parent="1" vertex="1">
          <mxGeometry x="200" y="260" width="80" height="40" as="geometry" />
        </mxCell>
        <mxCell id="3lOZ6aOzdxaL4Qyu1qb0-47" style="edgeStyle=orthogonalEdgeStyle;rounded=0;orthogonalLoop=1;jettySize=auto;html=1;exitX=0.5;exitY=0;exitDx=0;exitDy=0;entryX=0.5;entryY=1;entryDx=0;entryDy=0;curved=1;endArrow=none;endFill=0;" parent="1" source="3lOZ6aOzdxaL4Qyu1qb0-4" target="3lOZ6aOzdxaL4Qyu1qb0-18" edge="1">
          <mxGeometry relative="1" as="geometry" />
        </mxCell>
        <mxCell id="3lOZ6aOzdxaL4Qyu1qb0-4" value="Vaccinations" style="whiteSpace=wrap;html=1;" parent="1" vertex="1">
          <mxGeometry x="570" y="280" width="80" height="40" as="geometry" />
        </mxCell>
        <mxCell id="3lOZ6aOzdxaL4Qyu1qb0-54" style="edgeStyle=orthogonalEdgeStyle;rounded=0;orthogonalLoop=1;jettySize=auto;html=1;exitX=0.5;exitY=0;exitDx=0;exitDy=0;entryX=1;entryY=1;entryDx=0;entryDy=0;endArrow=none;endFill=0;curved=1;" parent="1" source="3lOZ6aOzdxaL4Qyu1qb0-5" target="3lOZ6aOzdxaL4Qyu1qb0-24" edge="1">
          <mxGeometry relative="1" as="geometry" />
        </mxCell>
        <mxCell id="3lOZ6aOzdxaL4Qyu1qb0-55" style="edgeStyle=orthogonalEdgeStyle;rounded=0;orthogonalLoop=1;jettySize=auto;html=1;exitX=0;exitY=0;exitDx=0;exitDy=0;entryX=1;entryY=0.5;entryDx=0;entryDy=0;curved=1;endArrow=none;endFill=0;" parent="1" source="3lOZ6aOzdxaL4Qyu1qb0-5" target="3lOZ6aOzdxaL4Qyu1qb0-25" edge="1">
          <mxGeometry relative="1" as="geometry" />
        </mxCell>
        <mxCell id="3lOZ6aOzdxaL4Qyu1qb0-56" style="edgeStyle=orthogonalEdgeStyle;rounded=0;orthogonalLoop=1;jettySize=auto;html=1;exitX=0;exitY=0.5;exitDx=0;exitDy=0;entryX=1;entryY=0.5;entryDx=0;entryDy=0;curved=1;endArrow=none;endFill=0;" parent="1" source="3lOZ6aOzdxaL4Qyu1qb0-5" target="3lOZ6aOzdxaL4Qyu1qb0-26" edge="1">
          <mxGeometry relative="1" as="geometry" />
        </mxCell>
        <mxCell id="3lOZ6aOzdxaL4Qyu1qb0-5" value="Healthcare Workers" style="whiteSpace=wrap;html=1;" parent="1" vertex="1">
          <mxGeometry x="220" y="530" width="80" height="40" as="geometry" />
        </mxCell>
        <mxCell id="3lOZ6aOzdxaL4Qyu1qb0-58" style="edgeStyle=orthogonalEdgeStyle;rounded=0;orthogonalLoop=1;jettySize=auto;html=1;exitX=0.5;exitY=0;exitDx=0;exitDy=0;entryX=0.5;entryY=1;entryDx=0;entryDy=0;curved=1;endArrow=none;endFill=0;" parent="1" source="3lOZ6aOzdxaL4Qyu1qb0-6" target="3lOZ6aOzdxaL4Qyu1qb0-28" edge="1">
          <mxGeometry relative="1" as="geometry" />
        </mxCell>
        <mxCell id="3lOZ6aOzdxaL4Qyu1qb0-6" value="Vaccination Schedule" style="whiteSpace=wrap;html=1;" parent="1" vertex="1">
          <mxGeometry x="490" y="520" width="80" height="40" as="geometry" />
        </mxCell>
        <mxCell id="3lOZ6aOzdxaL4Qyu1qb0-43" style="edgeStyle=orthogonalEdgeStyle;rounded=0;orthogonalLoop=1;jettySize=auto;html=1;exitX=1;exitY=1;exitDx=0;exitDy=0;entryX=0;entryY=0.5;entryDx=0;entryDy=0;curved=1;endArrow=none;endFill=0;" parent="1" source="3lOZ6aOzdxaL4Qyu1qb0-7" target="3lOZ6aOzdxaL4Qyu1qb0-2" edge="1">
          <mxGeometry relative="1" as="geometry">
            <Array as="points">
              <mxPoint x="370" y="84" />
              <mxPoint x="370" y="140" />
            </Array>
          </mxGeometry>
        </mxCell>
        <mxCell id="3lOZ6aOzdxaL4Qyu1qb0-7" value="PatientID" style="ellipse;whiteSpace=wrap;html=1;" parent="1" vertex="1">
          <mxGeometry x="290" y="50" width="80" height="40" as="geometry" />
        </mxCell>
        <mxCell id="3lOZ6aOzdxaL4Qyu1qb0-44" style="edgeStyle=orthogonalEdgeStyle;rounded=0;orthogonalLoop=1;jettySize=auto;html=1;exitX=0.5;exitY=1;exitDx=0;exitDy=0;entryX=0.5;entryY=0;entryDx=0;entryDy=0;curved=1;endArrow=none;endFill=0;" parent="1" source="3lOZ6aOzdxaL4Qyu1qb0-8" target="3lOZ6aOzdxaL4Qyu1qb0-2" edge="1">
          <mxGeometry relative="1" as="geometry" />
        </mxCell>
        <mxCell id="3lOZ6aOzdxaL4Qyu1qb0-8" value="Name" style="ellipse;whiteSpace=wrap;html=1;" parent="1" vertex="1">
          <mxGeometry x="400" y="40" width="80" height="40" as="geometry" />
        </mxCell>
        <mxCell id="3lOZ6aOzdxaL4Qyu1qb0-45" style="edgeStyle=orthogonalEdgeStyle;rounded=0;orthogonalLoop=1;jettySize=auto;html=1;exitX=0;exitY=1;exitDx=0;exitDy=0;entryX=1;entryY=0.25;entryDx=0;entryDy=0;curved=1;endArrow=none;endFill=0;" parent="1" source="3lOZ6aOzdxaL4Qyu1qb0-9" target="3lOZ6aOzdxaL4Qyu1qb0-2" edge="1">
          <mxGeometry relative="1" as="geometry">
            <Array as="points">
              <mxPoint x="500" y="84" />
              <mxPoint x="500" y="130" />
            </Array>
          </mxGeometry>
        </mxCell>
        <mxCell id="3lOZ6aOzdxaL4Qyu1qb0-9" value="Address" style="ellipse;whiteSpace=wrap;html=1;" parent="1" vertex="1">
          <mxGeometry x="500" y="50" width="80" height="40" as="geometry" />
        </mxCell>
        <mxCell id="3lOZ6aOzdxaL4Qyu1qb0-46" style="edgeStyle=orthogonalEdgeStyle;rounded=0;orthogonalLoop=1;jettySize=auto;html=1;exitX=0;exitY=1;exitDx=0;exitDy=0;entryX=1;entryY=0.5;entryDx=0;entryDy=0;curved=1;endArrow=none;endFill=0;" parent="1" source="3lOZ6aOzdxaL4Qyu1qb0-10" target="3lOZ6aOzdxaL4Qyu1qb0-2" edge="1">
          <mxGeometry relative="1" as="geometry" />
        </mxCell>
        <mxCell id="3lOZ6aOzdxaL4Qyu1qb0-10" value="Phone Number" style="ellipse;whiteSpace=wrap;html=1;" parent="1" vertex="1">
          <mxGeometry x="560" y="100" width="80" height="40" as="geometry" />
        </mxCell>
        <mxCell id="3lOZ6aOzdxaL4Qyu1qb0-39" style="edgeStyle=orthogonalEdgeStyle;rounded=0;orthogonalLoop=1;jettySize=auto;html=1;exitX=0.5;exitY=1;exitDx=0;exitDy=0;entryX=0.5;entryY=0;entryDx=0;entryDy=0;endArrow=none;endFill=0;elbow=vertical;curved=1;" parent="1" source="3lOZ6aOzdxaL4Qyu1qb0-11" target="3lOZ6aOzdxaL4Qyu1qb0-3" edge="1">
          <mxGeometry relative="1" as="geometry" />
        </mxCell>
        <mxCell id="3lOZ6aOzdxaL4Qyu1qb0-11" value="VaccineID" style="ellipse;whiteSpace=wrap;html=1;" parent="1" vertex="1">
          <mxGeometry x="200" y="180" width="80" height="40" as="geometry" />
        </mxCell>
        <mxCell id="3lOZ6aOzdxaL4Qyu1qb0-12" value="Name" style="ellipse;whiteSpace=wrap;html=1;" parent="1" vertex="1">
          <mxGeometry x="100" y="210" width="80" height="40" as="geometry" />
        </mxCell>
        <mxCell id="3lOZ6aOzdxaL4Qyu1qb0-38" style="edgeStyle=orthogonalEdgeStyle;rounded=0;orthogonalLoop=1;jettySize=auto;html=1;exitX=0.914;exitY=0.221;exitDx=0;exitDy=0;entryX=0;entryY=0.5;entryDx=0;entryDy=0;endArrow=none;endFill=0;curved=1;exitPerimeter=0;" parent="1" source="3lOZ6aOzdxaL4Qyu1qb0-13" target="3lOZ6aOzdxaL4Qyu1qb0-3" edge="1">
          <mxGeometry relative="1" as="geometry">
            <Array as="points">
              <mxPoint x="153" y="280" />
            </Array>
          </mxGeometry>
        </mxCell>
        <mxCell id="3lOZ6aOzdxaL4Qyu1qb0-13" value="Manufacturer" style="ellipse;whiteSpace=wrap;html=1;" parent="1" vertex="1">
          <mxGeometry x="80" y="280" width="80" height="40" as="geometry" />
        </mxCell>
        <mxCell id="3lOZ6aOzdxaL4Qyu1qb0-14" value="Type" style="ellipse;whiteSpace=wrap;html=1;" parent="1" vertex="1">
          <mxGeometry x="100" y="350" width="80" height="40" as="geometry" />
        </mxCell>
        <mxCell id="3lOZ6aOzdxaL4Qyu1qb0-42" style="edgeStyle=orthogonalEdgeStyle;rounded=0;orthogonalLoop=1;jettySize=auto;html=1;exitX=0.5;exitY=0;exitDx=0;exitDy=0;entryX=0.5;entryY=1;entryDx=0;entryDy=0;curved=1;endArrow=none;endFill=0;" parent="1" source="3lOZ6aOzdxaL4Qyu1qb0-15" target="3lOZ6aOzdxaL4Qyu1qb0-3" edge="1">
          <mxGeometry relative="1" as="geometry" />
        </mxCell>
        <mxCell id="3lOZ6aOzdxaL4Qyu1qb0-15" value="Dosage" style="ellipse;whiteSpace=wrap;html=1;" parent="1" vertex="1">
          <mxGeometry x="200" y="360" width="80" height="40" as="geometry" />
        </mxCell>
        <mxCell id="3lOZ6aOzdxaL4Qyu1qb0-18" value="VaccinationID" style="ellipse;whiteSpace=wrap;html=1;" parent="1" vertex="1">
          <mxGeometry x="610" y="170" width="80" height="40" as="geometry" />
        </mxCell>
        <mxCell id="3lOZ6aOzdxaL4Qyu1qb0-51" style="edgeStyle=orthogonalEdgeStyle;rounded=0;orthogonalLoop=1;jettySize=auto;html=1;exitX=0;exitY=0;exitDx=0;exitDy=0;curved=1;endArrow=none;endFill=0;" parent="1" source="3lOZ6aOzdxaL4Qyu1qb0-22" edge="1">
          <mxGeometry relative="1" as="geometry">
            <Array as="points">
              <mxPoint x="702" y="260" />
              <mxPoint x="650" y="260" />
            </Array>
            <mxPoint x="650" y="280" as="targetPoint" />
          </mxGeometry>
        </mxCell>
        <mxCell id="3lOZ6aOzdxaL4Qyu1qb0-22" value="Given Dosage" style="ellipse;whiteSpace=wrap;html=1;" parent="1" vertex="1">
          <mxGeometry x="690" y="240" width="80" height="40" as="geometry" />
        </mxCell>
        <mxCell id="ebYKn5yzXqoK9HYg2sBP-2" style="edgeStyle=orthogonalEdgeStyle;rounded=0;orthogonalLoop=1;jettySize=auto;html=1;exitX=0;exitY=0.5;exitDx=0;exitDy=0;entryX=1;entryY=1;entryDx=0;entryDy=0;curved=1;endArrow=none;endFill=0;" edge="1" parent="1" source="3lOZ6aOzdxaL4Qyu1qb0-23" target="3lOZ6aOzdxaL4Qyu1qb0-4">
          <mxGeometry relative="1" as="geometry" />
        </mxCell>
        <mxCell id="3lOZ6aOzdxaL4Qyu1qb0-23" value="Notes" style="ellipse;whiteSpace=wrap;html=1;" parent="1" vertex="1">
          <mxGeometry x="700" y="330" width="80" height="40" as="geometry" />
        </mxCell>
        <mxCell id="3lOZ6aOzdxaL4Qyu1qb0-24" value="WorkerID" style="ellipse;whiteSpace=wrap;html=1;" parent="1" vertex="1">
          <mxGeometry x="190" y="430" width="80" height="40" as="geometry" />
        </mxCell>
        <mxCell id="3lOZ6aOzdxaL4Qyu1qb0-25" value="Name" style="ellipse;whiteSpace=wrap;html=1;" parent="1" vertex="1">
          <mxGeometry x="110" y="470" width="80" height="40" as="geometry" />
        </mxCell>
        <mxCell id="3lOZ6aOzdxaL4Qyu1qb0-26" value="Specialization" style="ellipse;whiteSpace=wrap;html=1;" parent="1" vertex="1">
          <mxGeometry x="110" y="530" width="80" height="40" as="geometry" />
        </mxCell>
        <mxCell id="3lOZ6aOzdxaL4Qyu1qb0-27" value="Medical License Number" style="ellipse;whiteSpace=wrap;html=1;" parent="1" vertex="1">
          <mxGeometry x="110" y="590" width="100" height="50" as="geometry" />
        </mxCell>
        <mxCell id="3lOZ6aOzdxaL4Qyu1qb0-28" value="ScheduleID" style="ellipse;whiteSpace=wrap;html=1;" parent="1" vertex="1">
          <mxGeometry x="530" y="440" width="80" height="40" as="geometry" />
        </mxCell>
        <mxCell id="ebYKn5yzXqoK9HYg2sBP-3" style="edgeStyle=orthogonalEdgeStyle;rounded=0;orthogonalLoop=1;jettySize=auto;html=1;exitX=0;exitY=0.5;exitDx=0;exitDy=0;entryX=1;entryY=0.5;entryDx=0;entryDy=0;curved=1;endArrow=none;endFill=0;" edge="1" parent="1" source="3lOZ6aOzdxaL4Qyu1qb0-31" target="3lOZ6aOzdxaL4Qyu1qb0-6">
          <mxGeometry relative="1" as="geometry" />
        </mxCell>
        <mxCell id="3lOZ6aOzdxaL4Qyu1qb0-31" value="Date" style="ellipse;whiteSpace=wrap;html=1;" parent="1" vertex="1">
          <mxGeometry x="630" y="520" width="80" height="40" as="geometry" />
        </mxCell>
        <mxCell id="3lOZ6aOzdxaL4Qyu1qb0-40" style="edgeStyle=orthogonalEdgeStyle;rounded=0;orthogonalLoop=1;jettySize=auto;html=1;exitX=1;exitY=1;exitDx=0;exitDy=0;entryX=0;entryY=0;entryDx=0;entryDy=0;endArrow=none;endFill=0;curved=1;" parent="1" source="3lOZ6aOzdxaL4Qyu1qb0-12" target="3lOZ6aOzdxaL4Qyu1qb0-3" edge="1">
          <mxGeometry relative="1" as="geometry">
            <Array as="points">
              <mxPoint x="168" y="260" />
            </Array>
          </mxGeometry>
        </mxCell>
        <mxCell id="3lOZ6aOzdxaL4Qyu1qb0-41" style="edgeStyle=orthogonalEdgeStyle;rounded=0;orthogonalLoop=1;jettySize=auto;html=1;exitX=1;exitY=0;exitDx=0;exitDy=0;entryX=0.133;entryY=1;entryDx=0;entryDy=0;entryPerimeter=0;endArrow=none;endFill=0;curved=1;" parent="1" source="3lOZ6aOzdxaL4Qyu1qb0-14" target="3lOZ6aOzdxaL4Qyu1qb0-3" edge="1">
          <mxGeometry relative="1" as="geometry" />
        </mxCell>
        <mxCell id="3lOZ6aOzdxaL4Qyu1qb0-57" style="edgeStyle=orthogonalEdgeStyle;rounded=0;orthogonalLoop=1;jettySize=auto;html=1;exitX=1;exitY=0.5;exitDx=0;exitDy=0;entryX=0.258;entryY=1.058;entryDx=0;entryDy=0;entryPerimeter=0;curved=1;endArrow=none;endFill=0;" parent="1" source="3lOZ6aOzdxaL4Qyu1qb0-27" target="3lOZ6aOzdxaL4Qyu1qb0-5" edge="1">
          <mxGeometry relative="1" as="geometry" />
        </mxCell>
        <mxCell id="3lOZ6aOzdxaL4Qyu1qb0-63" style="edgeStyle=orthogonalEdgeStyle;rounded=0;orthogonalLoop=1;jettySize=auto;html=1;exitX=0.5;exitY=0;exitDx=0;exitDy=0;endArrow=ERone;endFill=0;curved=1;" parent="1" source="3lOZ6aOzdxaL4Qyu1qb0-62" edge="1">
          <mxGeometry relative="1" as="geometry">
            <mxPoint x="440" y="160" as="targetPoint" />
          </mxGeometry>
        </mxCell>
        <mxCell id="3lOZ6aOzdxaL4Qyu1qb0-64" style="edgeStyle=orthogonalEdgeStyle;rounded=0;orthogonalLoop=1;jettySize=auto;html=1;exitX=0.5;exitY=1;exitDx=0;exitDy=0;entryX=0.146;entryY=-0.003;entryDx=0;entryDy=0;curved=1;endArrow=ERmany;endFill=0;entryPerimeter=0;" parent="1" source="3lOZ6aOzdxaL4Qyu1qb0-62" target="3lOZ6aOzdxaL4Qyu1qb0-4" edge="1">
          <mxGeometry relative="1" as="geometry" />
        </mxCell>
        <mxCell id="3lOZ6aOzdxaL4Qyu1qb0-62" value="Who" style="rhombus;whiteSpace=wrap;html=1;" parent="1" vertex="1">
          <mxGeometry x="425" y="210" width="80" height="40" as="geometry" />
        </mxCell>
        <mxCell id="3lOZ6aOzdxaL4Qyu1qb0-66" style="edgeStyle=orthogonalEdgeStyle;rounded=0;orthogonalLoop=1;jettySize=auto;html=1;exitX=0;exitY=0.5;exitDx=0;exitDy=0;entryX=1;entryY=0.5;entryDx=0;entryDy=0;endArrow=ERone;endFill=0;curved=1;" parent="1" source="3lOZ6aOzdxaL4Qyu1qb0-65" target="3lOZ6aOzdxaL4Qyu1qb0-3" edge="1">
          <mxGeometry relative="1" as="geometry" />
        </mxCell>
        <mxCell id="3lOZ6aOzdxaL4Qyu1qb0-67" style="edgeStyle=orthogonalEdgeStyle;rounded=0;orthogonalLoop=1;jettySize=auto;html=1;exitX=0.5;exitY=1;exitDx=0;exitDy=0;entryX=0;entryY=0.5;entryDx=0;entryDy=0;curved=1;endArrow=ERmany;endFill=0;" parent="1" source="3lOZ6aOzdxaL4Qyu1qb0-65" target="3lOZ6aOzdxaL4Qyu1qb0-4" edge="1">
          <mxGeometry relative="1" as="geometry" />
        </mxCell>
        <mxCell id="3lOZ6aOzdxaL4Qyu1qb0-65" value="What is used" style="rhombus;whiteSpace=wrap;html=1;" parent="1" vertex="1">
          <mxGeometry x="320" y="280" width="100" height="40" as="geometry" />
        </mxCell>
        <mxCell id="3lOZ6aOzdxaL4Qyu1qb0-70" style="edgeStyle=orthogonalEdgeStyle;rounded=0;orthogonalLoop=1;jettySize=auto;html=1;entryX=0.181;entryY=0.006;entryDx=0;entryDy=0;curved=1;entryPerimeter=0;endArrow=ERone;endFill=0;" parent="1" source="3lOZ6aOzdxaL4Qyu1qb0-68" target="3lOZ6aOzdxaL4Qyu1qb0-6" edge="1">
          <mxGeometry relative="1" as="geometry" />
        </mxCell>
        <mxCell id="3lOZ6aOzdxaL4Qyu1qb0-68" value="What vaccination" style="rhombus;whiteSpace=wrap;html=1;" parent="1" vertex="1">
          <mxGeometry x="460" y="360" width="80" height="70" as="geometry" />
        </mxCell>
        <mxCell id="3lOZ6aOzdxaL4Qyu1qb0-71" style="edgeStyle=orthogonalEdgeStyle;rounded=0;orthogonalLoop=1;jettySize=auto;html=1;entryX=0.081;entryY=1.012;entryDx=0;entryDy=0;entryPerimeter=0;endArrow=ERone;endFill=0;curved=1;" parent="1" source="3lOZ6aOzdxaL4Qyu1qb0-68" target="3lOZ6aOzdxaL4Qyu1qb0-4" edge="1">
          <mxGeometry relative="1" as="geometry" />
        </mxCell>
        <mxCell id="3lOZ6aOzdxaL4Qyu1qb0-73" style="edgeStyle=orthogonalEdgeStyle;rounded=0;orthogonalLoop=1;jettySize=auto;html=1;entryX=1;entryY=0.5;entryDx=0;entryDy=0;endArrow=ERone;endFill=0;curved=1;" parent="1" source="3lOZ6aOzdxaL4Qyu1qb0-72" target="3lOZ6aOzdxaL4Qyu1qb0-5" edge="1">
          <mxGeometry relative="1" as="geometry" />
        </mxCell>
        <mxCell id="3lOZ6aOzdxaL4Qyu1qb0-74" style="edgeStyle=orthogonalEdgeStyle;rounded=0;orthogonalLoop=1;jettySize=auto;html=1;entryX=0;entryY=0.5;entryDx=0;entryDy=0;endArrow=ERmany;endFill=0;curved=1;" parent="1" source="3lOZ6aOzdxaL4Qyu1qb0-72" target="3lOZ6aOzdxaL4Qyu1qb0-6" edge="1">
          <mxGeometry relative="1" as="geometry" />
        </mxCell>
        <mxCell id="3lOZ6aOzdxaL4Qyu1qb0-72" value="What worker" style="rhombus;whiteSpace=wrap;html=1;" parent="1" vertex="1">
          <mxGeometry x="340" y="420" width="80" height="40" as="geometry" />
        </mxCell>
      </root>
    </mxGraphModel>
  </diagram>
</mxfile>
